:SAMPLES-PER-SECOND 30
:FULLY-SPECIFIED
:DEGREES
139
root  -32.5919 41.253 38.6244 -0.365479 -3.25462 -0.617996
RightUpLeg  -4.74609 -7.58486 -3.6233
RightLeg  3.57701 -1.02762 4.39467
RightFoot  1.99281 0.204967 -1.63649
RightToes  -1.74624e-010 0 -3.6325e-017
Spine  4.6521 -0.253986 4.18174
Spine1  -0.18331 0.387313 -3.00162
HEad  -12.3272 10.2402 -1.69655
LeftShoulder1  0.019861 3.38676 -5.99269
LeftArm  -13.8671 18.4855 1.27519
LeftForeArm  11.9878 -13.5986 -3.111
LeftHand  -0.244104 0.0205437 5.32207
RightShoulder  0.248488 -1.63106 5.54152
RightArm  -15.6564 -10.8905 -0.175249
RightForeArm  -9.97578 6.5526 5.01788
RightHand  -1.12904 4.08921 -14.0266
LeftUpLeg  -2.6582 4.8779 4.6751
LeftLeg  6.59496 6.55845 -0.857933
LeftFoot  -3.65351 0.168364 -2.15168
LeftToes  9.06232e-013 -1.14826e-010 3.0111e-013
140
root  -32.6683 41.2637 38.8416 -0.206238 -3.21619 -0.790894
RightUpLeg  -4.40559 -7.41474 -3.32365
RightLeg  3.25142 -1.36904 4.40036
RightFoot  2.01452 0.255511 -2.06306
RightToes  -1.74624e-010 0 -3.6325e-017
Spine  4.48531 -0.081887 4.02284
Spine1  -0.00882756 0.495336 -2.6492
HEad  -12.1696 10.6578 -1.73807
LeftShoulder1  -0.108708 4.49876 -3.1848
LeftArm  -14.0931 16.9626 2.06275
LeftForeArm  12.5818 -13.1065 -3.10441
LeftHand  -0.244104 0.0205437 5.32207
RightShoulder  0.13146 -2.30563 2.95682
RightArm  -16.5153 -8.8936 -1.89514
RightForeArm  -10.5945 6.00238 4.90469
RightHand  -1.34111 5.20304 -14.9031
LeftUpLeg  -2.19356 5.29635 5.23396
LeftLeg  6.08047 6.1769 -1.28677
LeftFoot  -3.57948 0.191264 -2.50784
LeftToes  9.06232e-013 -1.14826e-010 3.0111e-013
141
root  -32.7246 41.2783 39.0339 -0.0710297 -2.95508 -0.918793
RightUpLeg  -4.1771 -7.29494 -3.10983
RightLeg  3.14413 -1.77566 4.39172
RightFoot  1.99918 0.319588 -2.61459
RightToes  -1.74624e-010 0 -3.6325e-017
Spine  4.34732 -0.0841756 3.88475
Spine1  0.221279 0.448962 -2.43169
HEad  -12.0114 11.3549 -1.68635
LeftShoulder1  -0.163341 5.2208 -1.40751
LeftArm  -14.1793 15.736 2.60904
LeftForeArm  13.2782 -12.6695 -3.12258
LeftHand  -0.244104 0.0205437 5.32207
RightShoulder  0.0668428 -2.79689 1.19196
RightArm  -17.6153 -7.17904 -2.80732
RightForeArm  -12.286 5.74526 4.82601
RightHand  -1.52887 5.66517 -16.2637
LeftUpLeg  -1.79198 5.64917 5.70524
LeftLeg  5.55477 5.54387 -1.75521
LeftFoot  -3.40377 0.199024 -2.62854
LeftToes  9.06232e-013 -1.14826e-010 3.0111e-013
142
root  -32.7596 41.2966 39.1967 0.0789337 -2.51608 -0.953156
RightUpLeg  -4.08803 -7.19338 -3.0157
RightLeg  3.24371 -2.27295 4.29407
RightFoot  1.80472 0.336278 -2.80922
RightToes  -1.74624e-010 0 -3.6325e-017
Spine  4.29582 -0.188086 3.81381
Spine1  0.326624 0.343689 -2.45684
HEad  -12.1738 11.6315 -1.55269
LeftShoulder1  -0.165796 5.40266 -0.511935
LeftArm  -14.4975 15.0237 2.685
LeftForeArm  12.7826 -12.0563 -3.08248
LeftHand  -0.244104 0.0205437 5.32207
RightShoulder  0.018677 -3.2821 -0.0104375
RightArm  -18.7183 -5.93598 -2.57819
RightForeArm  -13.1293 5.71435 4.72647
RightHand  -1.53502 5.57183 -16.4493
LeftUpLeg  -1.56447 5.62067 5.8213
LeftLeg  5.11054 5.14185 -1.93217
LeftFoot  -3.21601 0.174461 -2.2465
LeftToes  9.06232e-013 -1.14826e-010 3.0111e-013
143
root  -32.7744 41.3105 39.3365 0.29216 -2.01889 -0.932144
RightUpLeg  -4.00992 -7.12816 -2.99817
RightLeg  3.16788 -2.89003 4.18554
RightFoot  1.66582 0.335856 -2.84295
RightToes  -1.74624e-010 0 -3.6325e-017
Spine  4.19987 -0.219777 3.68292
Spine1  0.453063 0.277435 -2.28949
HEad  -12.3365 11.4961 -1.7424
LeftShoulder1  -0.146716 5.15958 -0.730283
LeftArm  -14.8422 14.4141 2.43112
LeftForeArm  11.5318 -11.0948 -3.02837
LeftHand  -0.244104 0.0205437 5.32207
RightShoulder  -0.0120343 -3.65762 -0.78874
RightArm  -19.1917 -5.17039 -1.77234
RightForeArm  -12.0201 5.59301 4.63593
RightHand  -1.42159 5.43891 -15.452
LeftUpLeg  -1.50095 5.34852 5.697
LeftLeg  4.71802 4.99315 -1.88016
LeftFoot  -3.00924 0.146068 -1.80501
LeftToes  9.06232e-013 -1.14826e-010 3.0111e-013
144
root  -32.7737 41.319 39.4543 0.546875 -1.52252 -0.963348
RightUpLeg  -3.91753 -7.10401 -2.9696
RightLeg  2.8997 -3.51629 4.16226
RightFoot  1.64188 0.353217 -2.99365
RightToes  -1.74624e-010 0 -3.6325e-017
Spine  4.12306 -0.185568 3.52327
Spine1  0.614141 0.225023 -1.82906
HEad  -12.3234 11.3821 -2.20865
LeftShoulder1  -0.116141 4.68931 -1.93645
LeftArm  -14.7321 13.6249 2.15
LeftForeArm  10.9589 -9.79417 -3.05536
LeftHand  -0.244104 0.0205437 5.32207
RightShoulder  -0.0137321 -3.68571 -0.967326
RightArm  -18.9798 -4.64886 -1.04794
RightForeArm  -9.75209 5.0363 4.54812
RightHand  -1.31148 5.41753 -14.3202
LeftUpLeg  -1.57478 5.15914 5.62981
LeftLeg  4.46208 4.72766 -1.82332
LeftFoot  -2.8429 0.135932 -1.64743
LeftToes  9.06232e-013 -1.14826e-010 3.0111e-013
145
root  -32.7662 41.3246 39.5479 0.76712 -1.06793 -1.06493
RightUpLeg  -3.89193 -7.09086 -2.90533
RightLeg  2.77877 -3.9952 4.18995
RightFoot  1.53988 0.37154 -3.19635
RightToes  -1.74624e-010 0 -3.6325e-017
Spine  4.24491 -0.178413 3.44267
Spine1  0.642126 0.163034 -1.45466
HEad  -12.6599 11.1672 -2.59057
LeftShoulder1  -0.0585828 4.05476 -3.35788
LeftArm  -14.1153 13.0153 1.78505
LeftForeArm  11.358 -8.35697 -3.15606
LeftHand  -0.244104 0.0205437 5.32207
RightShoulder  0.0149865 -3.32372 -0.386749
RightArm  -18.5233 -4.27682 -0.566891
RightForeArm  -7.82465 4.17183 4.4727
RightHand  -1.19322 5.1951 -13.3239
LeftUpLeg  -1.70523 5.19833 5.73293
LeftLeg  4.3852 4.20982 -1.88774
LeftFoot  -2.81998 0.137938 -1.67862
LeftToes  9.06232e-013 -1.14826e-010 3.0111e-013
146
root  -32.7566 41.3253 39.6295 0.963226 -0.69368 -1.14038
RightUpLeg  -3.97864 -7.08482 -2.868
RightLeg  2.90044 -4.33671 4.19446
RightFoot  1.31494 0.377452 -3.31957
RightToes  -1.74624e-010 0 -3.6325e-017
Spine  4.4444 -0.191385 3.35518
Spine1  0.574533 0.117152 -1.27718
HEad  -13.0146 11.1412 -2.6059
LeftShoulder1  0.0256641 3.33204 -4.48178
LeftArm  -13.3641 12.9261 1.2077
LeftForeArm  11.8748 -7.0473 -3.25384
LeftHand  -0.244104 0.0205437 5.32207
RightShoulder  0.0642366 -2.79256 0.668387
RightArm  -17.9702 -4.11277 -0.239653
RightForeArm  -6.82468 3.40736 4.4896
RightHand  -1.01089 4.5735 -12.0137
LeftUpLeg  -1.81711 5.34781 5.87561
LeftLeg  4.34146 3.6743 -2.05359
LeftFoot  -2.88464 0.142027 -1.74217
LeftToes  9.06232e-013 -1.14826e-010 3.0111e-013
147
root  -32.7381 41.3233 39.7184 1.20752 -0.373749 -1.153
RightUpLeg  -4.0959 -7.09091 -2.88907
RightLeg  2.97713 -4.66375 4.1784
RightFoot  1.13087 0.372492 -3.33507
RightToes  -1.74624e-010 0 -3.6325e-017
Spine  4.47232 -0.179446 3.14902
Spine1  0.57552 0.0729228 -1.00407
HEad  -13.1013 11.114 -2.45019
LeftShoulder1  0.115593 2.67444 -5.57191
LeftArm  -12.6655 13.1053 0.783248
LeftForeArm  11.9528 -5.88898 -3.34468
LeftHand  -0.244104 0.0205437 5.32207
RightShoulder  0.108626 -2.39344 1.56625
RightArm  -17.2054 -4.07351 0.0377752
RightForeArm  -6.26479 2.9127 4.63099
RightHand  -0.833217 3.8892 -10.666
LeftUpLeg  -1.92371 5.41855 5.92306
LeftLeg  4.20651 3.31548 -2.20698
LeftFoot  -2.8908 0.145725 -1.79967
LeftToes  9.06232e-013 -1.14826e-010 3.0111e-013
148
root  -32.704 41.3261 39.8166 1.46567 -0.059082 -1.16881
RightUpLeg  -4.11604 -7.08396 -2.92493
RightLeg  2.84289 -4.99574 4.16428
RightFoot  1.04663 0.356697 -3.21795
RightToes  -1.74624e-010 0 -3.6325e-017
Spine  4.43431 -0.166372 2.90146
Spine1  0.554084 -0.0124289 -0.524413
HEad  -13.1102 11.1766 -3.00005
LeftShoulder1  0.203901 2.13542 -6.88282
LeftArm  -11.8911 13.2097 0.993369
LeftForeArm  11.5435 -4.65771 -3.46746
LeftHand  -0.244104 0.0205437 5.32207
RightShoulder  0.124485 -2.26684 1.8681
RightArm  -16.4568 -4.02247 0.383909
RightForeArm  -5.52863 2.60581 4.77174
RightHand  -0.752806 3.53188 -10.0295
LeftUpLeg  -2.02187 5.35409 5.8799
LeftLeg  4.0269 3.0987 -2.24922
LeftFoot  -2.83018 0.145978 -1.8036
LeftToes  9.06232e-013 -1.14826e-010 3.0111e-013
149
root  -32.6621 41.3339 39.9084 1.63451 0.228119 -1.21025
RightUpLeg  -4.03048 -7.04753 -2.94699
RightLeg  2.6714 -5.25863 4.13078
RightFoot  0.968926 0.331252 -3.00768
RightToes  -1.74624e-010 0 -3.6325e-017
Spine  4.60209 -0.186345 2.71812
Spine1  0.305976 -0.118011 -0.0920562
HEad  -13.0524 11.087 -3.1853
LeftShoulder1  0.289015 1.67253 -7.97821
LeftArm  -11.1299 13.3719 1.69299
LeftForeArm  10.6732 -3.36058 -3.57583
LeftHand  -0.244104 0.0205437 5.32207
RightShoulder  0.118926 -2.30253 1.6757
RightArm  -16.1526 -4.03831 0.73777
RightForeArm  -4.55075 2.45714 4.76667
RightHand  -0.75552 3.52166 -10.0715
LeftUpLeg  -2.03857 5.23371 5.80968
LeftLeg  3.8688 2.94577 -2.20609
LeftFoot  -2.80284 0.142168 -1.74436
LeftToes  9.06232e-013 -1.14826e-010 3.0111e-013
150
root  -32.6233 41.3395 39.9872 1.73926 0.432709 -1.23541
RightUpLeg  -3.96485 -7.00922 -2.97116
RightLeg  2.62226 -5.44245 4.07456
RightFoot  0.866157 0.311579 -2.85619
RightToes  -1.74624e-010 0 -3.6325e-017
Spine  4.89075 -0.225191 2.63657
Spine1  -0.0826441 -0.173369 -0.000930191
HEad  -12.999 11.2557 -3.3907
LeftShoulder1  0.335396 1.39922 -8.19534
LeftArm  -10.7076 13.8324 2.24369
LeftForeArm  9.62102 -2.50976 -3.57946
LeftHand  -0.244104 0.0205437 5.32207
RightShoulder  0.113845 -2.32672 1.4189
RightArm  -16.3124 -4.23784 0.808226
RightForeArm  -3.74739 2.47118 4.63815
RightHand  -0.784952 3.69962 -10.2594
LeftUpLeg  -1.98373 5.16019 5.75462
LeftLeg  3.71539 2.82365 -2.1918
LeftFoot  -2.83443 0.140573 -1.71957
LeftToes  9.06232e-013 -1.14826e-010 3.0111e-013
151
root  -32.5846 41.3415 40.0661 1.89249 0.557129 -1.25218
RightUpLeg  -3.98105 -7.00148 -3.00212
RightLeg  2.60436 -5.58285 4.05214
RightFoot  0.792318 0.305697 -2.82311
RightToes  -1.74624e-010 0 -3.6325e-017
Spine  5.0016 -0.282562 2.76883
Spine1  -0.357224 -0.145306 -0.460609
HEad  -12.8802 11.641 -3.42435
LeftShoulder1  0.291489 1.58345 -7.26854
LeftArm  -10.7447 14.4209 2.16689
LeftForeArm  9.03423 -2.55739 -3.49888
LeftHand  -0.244104 0.0205437 5.32207
RightShoulder  0.119827 -2.28503 1.60254
RightArm  -16.6011 -4.43188 0.339452
RightForeArm  -3.60404 2.48021 4.50959
RightHand  -0.832171 3.92485 -10.6077
LeftUpLeg  -1.96188 5.18431 5.74688
LeftLeg  3.56188 2.68295 -2.26883
LeftFoot  -2.8768 0.143132 -1.75936
LeftToes  9.06232e-013 -1.14826e-010 3.0111e-013
